<svg xmlns="http://www.w3.org/2000/svg" version="1.0" width="128.000000pt" height="128.000000pt" viewBox="0 0 128.000000 128.000000" preserveAspectRatio="xMidYMid meet">

<g transform="translate(0.000000,128.000000) scale(0.100000,-0.100000)" fill="#dedeff" stroke="none">
<path d="M543 1266 c-199 -63 -281 -290 -167 -462 122 -184 390 -183 512 1 36 55 57 141 48 202 -26 189 -216 314 -393 259z m214 -100 c63 -42 96 -99 101 -173 5 -76 -10 -124 -57 -176 -86 -96 -229 -104 -323 -19 -124 111 -98 302 52 383 55 30 171 23 227 -15z" fill="#dedeff"/>
<path d="M296 645 c-53 -19 -102 -69 -136 -140 -35 -74 -50 -153 -50 -265 0 -110 23 -161 95 -205 l48 -30 363 -3 c240 -2 377 1 404 8 51 14 108 63 131 115 48 105 5 357 -78 456 -31 37 -115 79 -158 79 -16 0 -71 -20 -121 -46 -77 -39 -99 -46 -150 -46 -64 -1 -120 18 -195 64 -51 31 -93 35 -153 13z m154 -101 c57 -37 144 -57 219 -51 51 4 84 15 151 49 72 37 90 43 120 37 81 -17 143 -135 156 -297 7 -97 -8 -147 -55 -179 -34 -23 -35 -23 -400 -23 -349 0 -367 1 -399 20 -50 31 -66 78 -59 180 10 135 53 244 111 280 53 34 84 30 156 -16z" fill="#dedeff"/>
</g>
</svg>